<svg width="21" height="21" viewBox="0 0 21 21" fill="none" xmlns="http://www.w3.org/2000/svg">
<path d="M14.875 1.75H6.125C3.70875 1.75 1.75 3.70875 1.75 6.125V14.875C1.75 17.2912 3.70875 19.25 6.125 19.25H14.875C17.2912 19.25 19.25 17.2912 19.25 14.875V6.125C19.25 3.70875 17.2912 1.75 14.875 1.75Z" stroke="white" stroke-linecap="round" stroke-linejoin="round"/>
<path d="M14 9.94877C14.108 10.677 13.9836 11.4207 13.6445 12.0742C13.3055 12.7276 12.769 13.2575 12.1114 13.5885C11.4538 13.9195 10.7086 14.0347 9.9818 13.9177C9.25497 13.8008 8.58353 13.4576 8.06297 12.937C7.54242 12.4165 7.19925 11.745 7.0823 11.0182C6.96534 10.2914 7.08054 9.54618 7.41152 8.8886C7.7425 8.23102 8.2724 7.69454 8.92585 7.35548C9.5793 7.01642 10.323 6.89203 11.0512 7.00002C11.794 7.11017 12.4817 7.4563 13.0127 7.98729C13.5437 8.51828 13.8898 9.20596 14 9.94877Z" stroke="white" stroke-linecap="round" stroke-linejoin="round"/>
<path d="M15.3125 5.6875H15.3219" stroke="white" stroke-linecap="round" stroke-linejoin="round"/>
</svg>
