<svg width="22" height="22" viewBox="0 0 22 22" fill="none" xmlns="http://www.w3.org/2000/svg">
<path d="M14.6666 7.33325C16.1253 7.33325 17.5243 7.91271 18.5557 8.94416C19.5872 9.97561 20.1666 11.3746 20.1666 12.8333V19.2499H16.5V12.8333C16.5 12.347 16.3068 11.8807 15.963 11.5369C15.6192 11.1931 15.1529 10.9999 14.6666 10.9999C14.1804 10.9999 13.7141 11.1931 13.3703 11.5369C13.0264 11.8807 12.8333 12.347 12.8333 12.8333V19.2499H9.16663V12.8333C9.16663 11.3746 9.74609 9.97561 10.7775 8.94416C11.809 7.91271 13.2079 7.33325 14.6666 7.33325Z" stroke="white" stroke-linecap="round" stroke-linejoin="round"/>
<path d="M5.50004 8.25H1.83337V19.25H5.50004V8.25Z" stroke="white" stroke-linecap="round" stroke-linejoin="round"/>
<path d="M3.66671 5.49992C4.67923 5.49992 5.50004 4.67911 5.50004 3.66659C5.50004 2.65406 4.67923 1.83325 3.66671 1.83325C2.65419 1.83325 1.83337 2.65406 1.83337 3.66659C1.83337 4.67911 2.65419 5.49992 3.66671 5.49992Z" stroke="white" stroke-linecap="round" stroke-linejoin="round"/>
</svg>
