<svg width="18" height="19" viewBox="0 0 18 19" fill="none" xmlns="http://www.w3.org/2000/svg">
<g clip-path="url(#clip0_0_74)">
<path d="M18.2084 2.88359C17.4575 3.46081 16.6262 3.90228 15.7463 4.19102C15.2741 3.59927 14.6465 3.17985 13.9484 2.98949C13.2504 2.79913 12.5155 2.84702 11.8432 3.12667C11.1709 3.40632 10.5936 3.90424 10.1895 4.55309C9.7853 5.20195 9.57373 5.97043 9.58337 6.75459V7.60912C8.20544 7.64806 6.84006 7.315 5.60882 6.63961C4.37759 5.96422 3.31874 4.96747 2.52656 3.73812C2.52656 3.73812 -0.609808 11.4288 6.44701 14.8469C4.8322 16.0415 2.90853 16.6405 0.958374 16.556C8.01519 20.8286 16.6402 16.556 16.6402 6.72896C16.6395 6.49093 16.6185 6.25349 16.5775 6.0197C17.3777 5.15962 17.9424 4.0737 18.2084 2.88359Z" stroke="white" stroke-linecap="round" stroke-linejoin="round"/>
</g>
<defs>
<clipPath id="clip0_0_74">
<rect width="18" height="19" fill="white"/>
</clipPath>
</defs>
</svg>
